<svg width="11" height="7" viewBox="0 0 11 7" fill="none" xmlns="http://www.w3.org/2000/svg">
<g id="Group">
<g id="Group_2">
<path id="Vector" d="M5.07078 6.28694L0.17573 1.3918C0.0624222 1.27858 -4.92822e-08 1.12745 -4.2238e-08 0.966293C-3.51938e-08 0.80514 0.0624222 0.654003 0.17573 0.540784L0.536134 0.180291C0.770977 -0.054284 1.15267 -0.054284 1.38715 0.180291L5.49772 4.29086L9.61285 0.175731C9.72616 0.0625121 9.8772 4.31746e-07 10.0383 4.38787e-07C10.1995 4.45835e-07 10.3506 0.0625122 10.464 0.175731L10.8243 0.536224C10.9376 0.649532 11 0.80058 11 0.961733C11 1.12289 10.9376 1.27402 10.8243 1.38724L5.92475 6.28694C5.81108 6.40043 5.65932 6.46276 5.49799 6.4624C5.33603 6.46276 5.18436 6.40043 5.07078 6.28694Z" fill="#E3C7B7"/>
</g>
</g>
</svg>
