<svg width="11" height="7" viewBox="0 0 11 7" fill="none" xmlns="http://www.w3.org/2000/svg">
<g id="Group">
<g id="Group_2">
<path id="Vector" d="M5.07078 6.07085L0.17573 1.34396C0.0624222 1.23464 -2.59547e-08 1.08869 -2.22449e-08 0.93308C-1.8535e-08 0.777466 0.0624222 0.631524 0.17573 0.522197L0.536134 0.174094C0.770977 -0.0524181 1.15267 -0.0524181 1.38715 0.174095L5.49772 4.14338L9.61285 0.169691C9.72616 0.0603639 9.8772 7.91612e-07 10.0383 8.04521e-07C10.1995 8.17444e-07 10.3506 0.0603639 10.464 0.169691L10.8243 0.517793C10.9376 0.627207 11 0.773063 11 0.928677C11 1.08429 10.9376 1.23023 10.8243 1.33956L5.92475 6.07085C5.81108 6.18044 5.65932 6.24063 5.49799 6.24028C5.33603 6.24063 5.18436 6.18044 5.07078 6.07085Z" fill="white"/>
</g>
</g>
</svg>
