<svg width="16" height="12" viewBox="0 0 16 12" fill="none" xmlns="http://www.w3.org/2000/svg">
<path d="M9.43166 7.60353C9.05089 7.85672 8.60859 7.99056 8.15258 7.99056C7.69659 7.99056 7.2543 7.85672 6.87352 7.60353L0.601905 3.43318C0.56711 3.41004 0.533211 3.38592 0.5 3.36111V10.1947C0.5 10.9782 1.13747 11.6 1.90894 11.6H14.3962C15.1817 11.6 15.8051 10.9642 15.8051 10.1947V3.36108C15.7719 3.38595 15.7379 3.41013 15.703 3.4333L9.43166 7.60353Z" fill="#E3C7B7"/>
<path d="M1.09935 2.68888L7.37097 6.85926C7.60838 7.01713 7.88046 7.09605 8.15254 7.09605C8.42466 7.09605 8.69677 7.0171 8.93418 6.85926L15.2058 2.68888C15.5811 2.43948 15.8052 2.02206 15.8052 1.57155C15.8052 0.796924 15.1733 0.166748 14.3967 0.166748H1.90846C1.13185 0.166778 0.5 0.796953 0.5 1.5723C0.5 2.02206 0.724077 2.43948 1.09935 2.68888Z" fill="#E3C7B7"/>
</svg>
