<svg width="14" height="14" viewBox="0 0 14 14" fill="none" xmlns="http://www.w3.org/2000/svg">
<path d="M12.5994 9.08506C11.7831 9.08506 10.9815 8.95738 10.222 8.70638C9.8498 8.57943 9.39227 8.69589 9.16512 8.92919L7.66592 10.0609C5.92728 9.13284 4.85631 8.06221 3.94089 6.33662L5.03933 4.87648C5.32471 4.59148 5.42707 4.17516 5.30443 3.78454C5.05235 3.02099 4.92429 2.21985 4.92429 1.40318C4.92433 0.813217 4.44436 0.333252 3.85444 0.333252H1.40583C0.815902 0.333252 0.335938 0.813217 0.335938 1.40315C0.335938 8.1653 5.83724 13.6666 12.5994 13.6666C13.1893 13.6666 13.6693 13.1866 13.6693 12.5967V10.1549C13.6692 9.56502 13.1893 9.08506 12.5994 9.08506Z" fill="#E3C7B7"/>
</svg>
