<svg width="12" height="17" viewBox="0 0 12 17" fill="none" xmlns="http://www.w3.org/2000/svg">
<path d="M6.01649 0.666748C4.46599 0.668836 2.9796 1.29506 1.88323 2.40811C0.786867 3.52115 0.170026 5.03016 0.167969 6.60424C0.167969 10.8669 5.61684 16.2057 5.84834 16.4308C5.89337 16.4752 5.95369 16.5001 6.01649 16.5001C6.07928 16.5001 6.1396 16.4752 6.18463 16.4308C6.41613 16.2057 11.865 10.8669 11.865 6.60424C11.8629 5.03016 11.2461 3.52115 10.1497 2.40811C9.05338 1.29506 7.56698 0.668836 6.01649 0.666748ZM6.01649 9.32559C5.48632 9.32559 4.96806 9.16599 4.52724 8.86696C4.08642 8.56794 3.74285 8.14292 3.53996 7.64566C3.33708 7.1484 3.28399 6.60122 3.38742 6.07333C3.49085 5.54544 3.74615 5.06054 4.12104 4.67996C4.49592 4.29937 4.97355 4.04018 5.49353 3.93518C6.01351 3.83018 6.55249 3.88407 7.0423 4.09004C7.53211 4.29601 7.95075 4.64482 8.2453 5.09234C8.53984 5.53986 8.69706 6.06601 8.69706 6.60424C8.69663 7.32586 8.41408 8.01779 7.91147 8.52805C7.40885 9.03831 6.72729 9.32516 6.01649 9.32559Z" fill="#E3C7B7"/>
</svg>
